<svg data-name="Layer 1" xmlns="http://www.w3.org/2000/svg" viewBox="0 0 211.72 50.87"><path d="M59.29 4.9h11.33a8.85 8.85 0 0 1 .17 1.71 9.16 9.16 0 0 1-.17 1.77h-7.28v4.39h5.78a9.66 9.66 0 0 1 .17 1.74 9.48 9.48 0 0 1-.17 1.77h-5.78v5.34h7.48a8.85 8.85 0 0 1 .18 1.71 9.18 9.18 0 0 1-.16 1.77H59.29V4.9M74 10.58a7 7 0 0 1 .78-.13 7.64 7.64 0 0 1 .86 0 6.78 6.78 0 0 1 .83 0 6.54 6.54 0 0 1 .75.13 1.57 1.57 0 0 1 .16.4c0 .18.09.37.12.57s.07.38.1.57.05.35.07.48a6.16 6.16 0 0 1 .67-.84 4.47 4.47 0 0 1 .9-.76 4.54 4.54 0 0 1 2.57-.76 4.75 4.75 0 0 1 3.68 1.35 6.15 6.15 0 0 1 1.23 4.24v9.27a11.5 11.5 0 0 1-3.94 0v-8.2a4.76 4.76 0 0 0-.46-2.33 1.67 1.67 0 0 0-1.6-.82 3.73 3.73 0 0 0-1 .14 2.13 2.13 0 0 0-.9.55 2.83 2.83 0 0 0-.65 1.14 5.89 5.89 0 0 0-.17 1.91v7.61a11.56 11.56 0 0 1-4 0V10.58m24.39 12.1a5.65 5.65 0 0 1 3.72 1.14 4 4 0 0 1 1.19 3.08 3.93 3.93 0 0 1-.61 2.15 5.34 5.34 0 0 1-1.69 1.64 8.25 8.25 0 0 1-2.5 1 14 14 0 0 1-5.94.1 6.12 6.12 0 0 1-1.9-.74 2.9 2.9 0 0 1-1.06-1.18 3.77 3.77 0 0 1-.32-1.55 3.42 3.42 0 0 1 .6-2.08 5.59 5.59 0 0 1 1.6-1.43 3.17 3.17 0 0 1-1-1 2.69 2.69 0 0 1-.37-1.48 3.16 3.16 0 0 1 .44-1.74 5 5 0 0 1 1.31-1.29 4.74 4.74 0 0 1-2-4 5 5 0 0 1 .42-2 4.6 4.6 0 0 1 1.21-1.63 5.64 5.64 0 0 1 1.93-1.08 7.85 7.85 0 0 1 2.55-.39 7.28 7.28 0 0 1 2.56.43 6.37 6.37 0 0 1 1.94 1.11 3.26 3.26 0 0 1 1.31-1.05 5.09 5.09 0 0 1 2.11-.35c0 .24.07.48.09.71a6 6 0 0 1 0 .75v.9c0 .3-.06.61-.11.92h-2.25a5.2 5.2 0 0 1 .25.68 4.13 4.13 0 0 1 .11 1 5.3 5.3 0 0 1-.4 2 4.48 4.48 0 0 1-1.19 1.61 5.64 5.64 0 0 1-1.9 1.07 7.7 7.7 0 0 1-2.54.39 8.22 8.22 0 0 1-2.14-.25 1.27 1.27 0 0 0-.58.66 2 2 0 0 0-.11.66 1 1 0 0 0 .29.73 1.84 1.84 0 0 0 1.18.31l3.81.05m-3.56 2.93a2.21 2.21 0 0 0-1 .14 1.6 1.6 0 0 0-1 1 2.41 2.41 0 0 0-.09.64 1.43 1.43 0 0 0 .79 1.44 5 5 0 0 0 2.12.38 6.12 6.12 0 0 0 2.82-.56 1.69 1.69 0 0 0 1.07-1.52 1.83 1.83 0 0 0-.07-.53 1.15 1.15 0 0 0-.26-.47 1.58 1.58 0 0 0-.54-.35 2.64 2.64 0 0 0-.93-.14zM96 17.94a2 2 0 0 0 1.68-.68 3 3 0 0 0 .51-1.85 3.07 3.07 0 0 0-.51-1.87 2 2 0 0 0-1.68-.69 2 2 0 0 0-1.72.69 3 3 0 0 0-.53 1.87 2.89 2.89 0 0 0 .53 1.85 2 2 0 0 0 1.72.68m10.82-4.33H105a5.91 5.91 0 0 1-.12-.77 7 7 0 0 1 0-.77 6.67 6.67 0 0 1 .16-1.49h5.72V25.1a11 11 0 0 1-3.86 0V13.61m-.58-5.48a11 11 0 0 1-.17-1.88 11.32 11.32 0 0 1 .17-1.88 9.56 9.56 0 0 1 1-.13h2a9.43 9.43 0 0 1 1 .13 7.55 7.55 0 0 1 .12.94v1.87a8 8 0 0 1-.12 1 6.25 6.25 0 0 1-1 .11h-2a6.38 6.38 0 0 1-1-.11m8.25 2.4a7 7 0 0 1 .78-.13 7.53 7.53 0 0 1 .86 0 6.88 6.88 0 0 1 .83 0 7.39 7.39 0 0 1 .75.13 1.29 1.29 0 0 1 .15.4c0 .18.09.37.13.57s.07.38.1.57 0 .35.06.48a7 7 0 0 1 .67-.84 4.77 4.77 0 0 1 2.1-1.31 4.44 4.44 0 0 1 1.41-.21 4.74 4.74 0 0 1 3.68 1.35 6.1 6.1 0 0 1 1.24 4.24v9.27a11.56 11.56 0 0 1-4 0v-8.2a4.89 4.89 0 0 0-.45-2.33 1.68 1.68 0 0 0-1.6-.82 3.73 3.73 0 0 0-1 .14 2 2 0 0 0-.9.55 3 3 0 0 0-.66 1.14 6.18 6.18 0 0 0-.25 1.91v7.61a11.5 11.5 0 0 1-3.94 0V10.58M134 19.06a3.13 3.13 0 0 0 1.17 2.45 4.69 4.69 0 0 0 2.78.75 10.75 10.75 0 0 0 1.93-.18 10.09 10.09 0 0 0 1.87-.52 6.55 6.55 0 0 1 .53 1.35 7 7 0 0 1 .25 1.69 13.41 13.41 0 0 1-4.89.84 9.52 9.52 0 0 1-3.43-.56 5.92 5.92 0 0 1-3.66-3.94 9.89 9.89 0 0 1-.43-3 9.83 9.83 0 0 1 .44-3 7.09 7.09 0 0 1 1.32-2.44 6.26 6.26 0 0 1 2.17-1.65 7.06 7.06 0 0 1 3-.6 6.46 6.46 0 0 1 2.67.53 6 6 0 0 1 2 1.46 6.21 6.21 0 0 1 1.28 2.2 8.69 8.69 0 0 1 .42 2.74c0 .35 0 .71-.05 1.05s-.06.63-.09.83H134m5.64-2.78a3.56 3.56 0 0 0-.73-2.18 2.35 2.35 0 0 0-1.91-.83 2.74 2.74 0 0 0-2.11.79 3.69 3.69 0 0 0-.86 2.22zm9.97 2.78a3.09 3.09 0 0 0 1.16 2.45 4.73 4.73 0 0 0 2.78.75 10.75 10.75 0 0 0 1.93-.18 10.42 10.42 0 0 0 1.88-.52 6.56 6.56 0 0 1 .52 1.35 7 7 0 0 1 .26 1.69 13.48 13.48 0 0 1-4.89.84 9.44 9.44 0 0 1-3.43-.56 6.17 6.17 0 0 1-2.34-1.56 6.38 6.38 0 0 1-1.33-2.38 9.89 9.89 0 0 1-.43-3 10.14 10.14 0 0 1 .44-3 7.09 7.09 0 0 1 1.32-2.44 6.36 6.36 0 0 1 2.17-1.65 7.09 7.09 0 0 1 3-.6 6.46 6.46 0 0 1 2.67.53 6.08 6.08 0 0 1 2 1.46 6.35 6.35 0 0 1 1.23 2.21 8.69 8.69 0 0 1 .42 2.74v1.05a8.22 8.22 0 0 1-.1.83h-9.22m5.64-2.78a3.57 3.57 0 0 0-.74-2.18 2.33 2.33 0 0 0-1.9-.83 2.73 2.73 0 0 0-2.11.79 3.69 3.69 0 0 0-.86 2.22zm6.78-5.71c.28-.06.54-.1.79-.13a7.48 7.48 0 0 1 1.64 0l.8.14a2.28 2.28 0 0 1 .15.41c0 .18.09.37.12.56s.07.4.1.59.05.36.07.5a7.14 7.14 0 0 1 1.5-1.56 3.5 3.5 0 0 1 2.22-.69h.64a1.9 1.9 0 0 1 .53.08 5.24 5.24 0 0 1 .08.65v1.75a7.05 7.05 0 0 1-.16 1.07 3.49 3.49 0 0 0-.68 0h-.45a7 7 0 0 0-1.06.09 2.45 2.45 0 0 0-1.11.52 3.29 3.29 0 0 0-.88 1.27 6.44 6.44 0 0 0-.34 2.36v6.91c-.34.05-.67.09-1 .11h-2c-.33 0-.66-.06-1-.11V10.58M174 13.61h-1.86a5.91 5.91 0 0 1-.12-.77 7 7 0 0 1 0-.77 6.67 6.67 0 0 1 .16-1.49h5.72V25.1a11 11 0 0 1-3.86 0V13.61m-.58-5.48a11 11 0 0 1-.17-1.88 11.32 11.32 0 0 1 .17-1.88 9.56 9.56 0 0 1 1-.13h2a9.43 9.43 0 0 1 1 .13 7.55 7.55 0 0 1 .12.94v1.87a8 8 0 0 1-.12 1 6.25 6.25 0 0 1-1 .11h-2a6.38 6.38 0 0 1-1-.11m8.3 2.4a7 7 0 0 1 .78-.13 7.53 7.53 0 0 1 .86 0 6.88 6.88 0 0 1 .83 0 7.39 7.39 0 0 1 .75.13 1.29 1.29 0 0 1 .15.4c.05.18.09.37.13.57s.07.38.1.57 0 .35.06.48a7 7 0 0 1 .67-.84 4.77 4.77 0 0 1 2.06-1.31 4.44 4.44 0 0 1 1.41-.21 4.74 4.74 0 0 1 3.68 1.35 6.1 6.1 0 0 1 1.24 4.24v9.27a11.56 11.56 0 0 1-3.95 0v-8.2a4.89 4.89 0 0 0-.45-2.33 1.68 1.68 0 0 0-1.6-.82 3.67 3.67 0 0 0-1 .14 2 2 0 0 0-.9.55 3 3 0 0 0-.66 1.14 5.89 5.89 0 0 0-.25 1.91v7.61a11.5 11.5 0 0 1-3.94 0V10.58m24.38 12.1a5.63 5.63 0 0 1 3.72 1.14A3.93 3.93 0 0 1 211 26.9a4 4 0 0 1-.61 2.15 5.45 5.45 0 0 1-1.67 1.64 8.36 8.36 0 0 1-2.5 1 14 14 0 0 1-5.94.1 6.19 6.19 0 0 1-1.91-.74 2.8 2.8 0 0 1-1.05-1.18 3.77 3.77 0 0 1-.32-1.55 3.42 3.42 0 0 1 .6-2.08 5.54 5.54 0 0 1 1.59-1.43 3.24 3.24 0 0 1-1-1 2.69 2.69 0 0 1-.37-1.48 3.08 3.08 0 0 1 .44-1.74 5.13 5.13 0 0 1 1.3-1.29 5 5 0 0 1-1.5-1.71 4.84 4.84 0 0 1-.52-2.25 5 5 0 0 1 .41-2 4.6 4.6 0 0 1 1.21-1.63 5.73 5.73 0 0 1 1.93-1.08 7.86 7.86 0 0 1 2.56-.39 7.26 7.26 0 0 1 2.55.43 6.3 6.3 0 0 1 1.95 1.11 3.23 3.23 0 0 1 1.3-1.05 5.12 5.12 0 0 1 2.11-.35c0 .24.07.48.1.71a6.06 6.06 0 0 1 0 .75v.9a7.43 7.43 0 0 1-.11.92h-2.25a3.34 3.34 0 0 1 .25.68 3.71 3.71 0 0 1 .11 1 5.12 5.12 0 0 1-.4 2 4.45 4.45 0 0 1-1.18 1.61 5.74 5.74 0 0 1-1.9 1.07 7.74 7.74 0 0 1-2.54.39 8.22 8.22 0 0 1-2.14-.25 1.29 1.29 0 0 0-.59.66 2.28 2.28 0 0 0-.11.66 1 1 0 0 0 .3.73 1.82 1.82 0 0 0 1.18.31l3.8.05m-3.55 2.93a2.25 2.25 0 0 0-1 .14 1.68 1.68 0 0 0-.64.43 1.82 1.82 0 0 0-.33.59 2.08 2.08 0 0 0-.1.64 1.45 1.45 0 0 0 .79 1.44 5 5 0 0 0 2.13.38 6.14 6.14 0 0 0 2.82-.56 1.71 1.71 0 0 0 1.07-1.52 2.26 2.26 0 0 0-.07-.53 1.18 1.18 0 0 0-.27-.47 1.58 1.58 0 0 0-.54-.35 2.6 2.6 0 0 0-.93-.14zm1.13-7.67a2 2 0 0 0 1.68-.68 3 3 0 0 0 .52-1.85 3 3 0 0 0-.52-1.87 2 2 0 0 0-1.68-.69 2 2 0 0 0-1.72.69 3 3 0 0 0-.53 1.87 3 3 0 0 0 .53 1.85 2.06 2.06 0 0 0 1.72.68M62.41 33.06H58.9c0-.13 0-.27-.06-.42s0-.29 0-.43v-.42c0-.14 0-.28.06-.4h8.93v.39a2.88 2.88 0 0 1 0 .41 3.31 3.31 0 0 1 0 .44v.43h-3.51v11.81a6.86 6.86 0 0 1-.94.06 7.32 7.32 0 0 1-1-.06V33.06m7.27 7.46a3.13 3.13 0 0 0 .82 2.31 3.24 3.24 0 0 0 2.29.73 6.93 6.93 0 0 0 2.53-.47 2.69 2.69 0 0 1 .25.68 4.52 4.52 0 0 1 .11.8 5.53 5.53 0 0 1-1.36.39 9.12 9.12 0 0 1-1.64.14 6.31 6.31 0 0 1-2.25-.37 4.05 4.05 0 0 1-1.55-1 4.24 4.24 0 0 1-.85-1.61 6.6 6.6 0 0 1-.28-2 7.11 7.11 0 0 1 .27-2 4.34 4.34 0 0 1 .84-1.61 3.93 3.93 0 0 1 1.41-1.09 4.67 4.67 0 0 1 2-.4 4.29 4.29 0 0 1 1.74.33 3.69 3.69 0 0 1 1.26.93A4 4 0 0 1 76 37.7a5.87 5.87 0 0 1 .26 1.77v1.05h-6.61m4.76-1.39a3.31 3.31 0 0 0-.14-1 2.53 2.53 0 0 0-.41-.84 2.15 2.15 0 0 0-.69-.57 2.28 2.28 0 0 0-1-.21 2.22 2.22 0 0 0-1.75.69 3.39 3.39 0 0 0-.74 1.93zm10.7 4.07a2.93 2.93 0 0 1 .26.66 3.11 3.11 0 0 1 .13.8 6.88 6.88 0 0 1-2.5.44 4.63 4.63 0 0 1-3.62-1.36 5.31 5.31 0 0 1-1.22-3.67 6.38 6.38 0 0 1 .3-2 4.58 4.58 0 0 1 .89-1.59 4.29 4.29 0 0 1 1.47-1.07 5 5 0 0 1 2-.39 9.54 9.54 0 0 1 1.39.09 5.31 5.31 0 0 1 1.14.3 4.36 4.36 0 0 1-.08.74 3.38 3.38 0 0 1-.24.74 6.44 6.44 0 0 0-2.1-.32 2.53 2.53 0 0 0-2.16 1 4.17 4.17 0 0 0-.71 2.53 3.65 3.65 0 0 0 .81 2.63 2.92 2.92 0 0 0 2.21.84 6.66 6.66 0 0 0 1-.08 4.51 4.51 0 0 0 1-.26m2.57-12.11l.45-.05h.93l.47.05v5.59c.12-.17.25-.36.42-.56a3.33 3.33 0 0 1 .62-.55 3.55 3.55 0 0 1 .85-.42 3.48 3.48 0 0 1 1.06-.18 3 3 0 0 1 2.44.94 4.22 4.22 0 0 1 .8 2.81v6.09c-.14 0-.29 0-.46.06h-.92c-.17 0-.32 0-.46-.06v-5.56a3.43 3.43 0 0 0-.44-2 1.52 1.52 0 0 0-1.34-.63 2.65 2.65 0 0 0-1 .18 2.22 2.22 0 0 0-.83.56 2.8 2.8 0 0 0-.56 1 4.68 4.68 0 0 0-.21 1.5v4.93c-.14 0-.29 0-.47.06h-.92c-.17 0-.33 0-.46-.06v-13.7m10.89 4.13l.4-.06h.79l.38.06c0 .19.08.44.12.76s0 .58 0 .8a4 4 0 0 1 .48-.64 3.73 3.73 0 0 1 .67-.57 3.44 3.44 0 0 1 .86-.42 3.59 3.59 0 0 1 1.07-.15 3 3 0 0 1 2.44.94 4.34 4.34 0 0 1 .78 2.81v6.09a4.58 4.58 0 0 1-.47.06h-.92c-.17 0-.32 0-.46-.06v-5.59a3.59 3.59 0 0 0-.42-2 1.44 1.44 0 0 0-1.31-.63 2.72 2.72 0 0 0-1 .19 2.36 2.36 0 0 0-.83.58 3.12 3.12 0 0 0-.57 1 4.83 4.83 0 0 0-.21 1.51v4.88c-.14 0-.3 0-.46.06H99c-.18 0-.33 0-.47-.06v-9.56m14.73 9.85a4.65 4.65 0 0 1-2-.39 3.76 3.76 0 0 1-1.41-1.06 4.31 4.31 0 0 1-.83-1.59 7.21 7.21 0 0 1 0-4 4.31 4.31 0 0 1 .83-1.59 3.89 3.89 0 0 1 1.41-1.07 5.15 5.15 0 0 1 3.93 0 3.89 3.89 0 0 1 1.41 1.07 4.48 4.48 0 0 1 .84 1.59 7.47 7.47 0 0 1 0 4 4.48 4.48 0 0 1-.84 1.59 3.76 3.76 0 0 1-1.41 1.06 4.63 4.63 0 0 1-2 .39m0-1.49a2.13 2.13 0 0 0 1.91-.93 4.75 4.75 0 0 0 .62-2.61 4.69 4.69 0 0 0-.62-2.6 2.43 2.43 0 0 0-3.82 0 4.78 4.78 0 0 0-.61 2.6 4.84 4.84 0 0 0 .61 2.61 2.12 2.12 0 0 0 1.91.93m6.95-12.49l.46-.05h.92l.46.05V42a2.64 2.64 0 0 0 .1.83 1.06 1.06 0 0 0 .25.46.75.75 0 0 0 .37.2 1.75 1.75 0 0 0 .46 0 2.75 2.75 0 0 0 .39 0h.36a5.76 5.76 0 0 1 .17 1.42 2.61 2.61 0 0 1-.64.12h-.69a3.63 3.63 0 0 1-1-.13 2.19 2.19 0 0 1-.83-.43 2 2 0 0 1-.56-.81 3.23 3.23 0 0 1-.21-1.25V31.12m9.52 13.98a4.68 4.68 0 0 1-2-.39 3.8 3.8 0 0 1-1.4-1.06 4.33 4.33 0 0 1-.84-1.59 7.47 7.47 0 0 1 0-4 4.33 4.33 0 0 1 .84-1.59 3.94 3.94 0 0 1 1.4-1.07 5.17 5.17 0 0 1 3.94 0 4.06 4.06 0 0 1 1.41 1.07 4.47 4.47 0 0 1 .83 1.59 7.21 7.21 0 0 1 0 4 4.47 4.47 0 0 1-.83 1.59 3.92 3.92 0 0 1-1.41 1.06 4.65 4.65 0 0 1-2 .39m0-1.49a2.16 2.16 0 0 0 1.92-.93 4.76 4.76 0 0 0 .61-2.61 4.7 4.7 0 0 0-.61-2.6 2.16 2.16 0 0 0-1.92-.93 2.1 2.1 0 0 0-1.9.93 4.7 4.7 0 0 0-.61 2.6 4.76 4.76 0 0 0 .61 2.61 2.1 2.1 0 0 0 1.9.93m12.05.02a3.79 3.79 0 0 1 2.42.71 2.39 2.39 0 0 1 .75 1.86 2.5 2.5 0 0 1-.39 1.38 3.54 3.54 0 0 1-1.09 1.05 5.7 5.7 0 0 1-1.64.68 8.9 8.9 0 0 1-2.06.23 5.87 5.87 0 0 1-2.94-.6 2 2 0 0 1-1-1.89 2.41 2.41 0 0 1 .41-1.38 3 3 0 0 1 1.07-1 2.15 2.15 0 0 1-.63-.61 1.53 1.53 0 0 1-.25-.91 2.23 2.23 0 0 1 .31-1.2 3.19 3.19 0 0 1 .83-.9 3.31 3.31 0 0 1-1-1.11 3.2 3.2 0 0 1-.38-1.55 3.26 3.26 0 0 1 .27-1.33 3.09 3.09 0 0 1 .75-1.08 3.57 3.57 0 0 1 1.23-.72A4.84 4.84 0 0 1 140 35a4.59 4.59 0 0 1 1.53.24 4 4 0 0 1 1.17.62 3 3 0 0 1 1-.5 4.73 4.73 0 0 1 1.4-.2 3.84 3.84 0 0 1 .08.79v.43a3.47 3.47 0 0 1-.06.45h-1.69a2.61 2.61 0 0 1 .32.7 2.84 2.84 0 0 1 .12.86 3.48 3.48 0 0 1-.28 1.39 3.2 3.2 0 0 1-.8 1.06 3.66 3.66 0 0 1-1.23.67 4.86 4.86 0 0 1-1.56.24 5.46 5.46 0 0 1-1.39-.17 1.93 1.93 0 0 0-.51.46 1 1 0 0 0-.25.66.82.82 0 0 0 .24.59 1.66 1.66 0 0 0 1.09.28h2.49m-2.53 1.48a1.57 1.57 0 0 0-1.26.45 1.61 1.61 0 0 0-.43 1.13 1.23 1.23 0 0 0 .17.67 1.19 1.19 0 0 0 .48.43 2.5 2.5 0 0 0 .73.22 5.33 5.33 0 0 0 .93.07 4.62 4.62 0 0 0 2.34-.5 1.44 1.44 0 0 0 .85-1.25 1.06 1.06 0 0 0-.36-.86 2.15 2.15 0 0 0-1.31-.32zm.86-4.68a1.85 1.85 0 0 0 1.5-.57 2.08 2.08 0 0 0 .49-1.44 2.16 2.16 0 0 0-.49-1.47 2.25 2.25 0 0 0-3 0 2.2 2.2 0 0 0-.48 1.47 2.12 2.12 0 0 0 .48 1.44 1.84 1.84 0 0 0 1.49.57m10.17 4.52h-1.34l-3.19-9.62h2.02l2.66 9 2.76-9a6.17 6.17 0 0 1 .92-.06h.99l-3.73 11.57a10.5 10.5 0 0 1-.54 1.29 3.05 3.05 0 0 1-.64.85 2.2 2.2 0 0 1-.8.45 3.46 3.46 0 0 1-1 .13 4.8 4.8 0 0 1-.85-.07 4.45 4.45 0 0 1-.75-.16 3.48 3.48 0 0 1 .08-.76 3.63 3.63 0 0 1 .23-.68 3.26 3.26 0 0 0 .46.12 2.45 2.45 0 0 0 .62.07 2.16 2.16 0 0 0 .46-.05.92.92 0 0 0 .4-.19 1.16 1.16 0 0 0 .35-.4 3.24 3.24 0 0 0 .31-.71l.58-1.82m19.04-6.96h1.9v6.59a6.19 6.19 0 0 1-.86.29 7.71 7.71 0 0 1-1 .18c-.34 0-.67.08-1 .11s-.66 0-1 0a7.42 7.42 0 0 1-2.7-.47 5.5 5.5 0 0 1-2-1.36 6.07 6.07 0 0 1-1.27-2.17 9.67 9.67 0 0 1 0-5.8 6.38 6.38 0 0 1 1.28-2.22 5.63 5.63 0 0 1 2-1.42 6.42 6.42 0 0 1 2.56-.5 11.2 11.2 0 0 1 1.86.14 7.7 7.7 0 0 1 1.42.39 3.16 3.16 0 0 1-.16.79 7.56 7.56 0 0 1-.29.78c-.35-.11-.72-.21-1.13-.3a8.08 8.08 0 0 0-1.53-.13 4.43 4.43 0 0 0-1.81.36 3.74 3.74 0 0 0-1.39 1 5 5 0 0 0-.89 1.69 7.58 7.58 0 0 0-.32 2.29 7.12 7.12 0 0 0 .33 2.3 4.46 4.46 0 0 0 .93 1.61 3.73 3.73 0 0 0 1.42 1 5 5 0 0 0 1.81.31 6.51 6.51 0 0 0 1.05-.07 4.37 4.37 0 0 0 .76-.16v-5.23m4.83-2.64l.4-.06h.8l.38.06c0 .19.07.44.11.74a6.28 6.28 0 0 1 .06.78 3.78 3.78 0 0 1 1-1.11 2.76 2.76 0 0 1 1.66-.47h.58a3.48 3.48 0 0 1 .05.36 2.42 2.42 0 0 1 0 .39 3.83 3.83 0 0 1 0 .47c0 .16 0 .32-.06.47a1.06 1.06 0 0 0-.31 0h-.25a3.45 3.45 0 0 0-1 .14 2 2 0 0 0-.82.5 2.5 2.5 0 0 0-.59 1 5.13 5.13 0 0 0-.21 1.6v4.78c-.14 0-.29 0-.46.06h-.92c-.17 0-.33 0-.48-.06v-9.65m10.69 9.85a4.65 4.65 0 0 1-2-.39 3.92 3.92 0 0 1-1.41-1.06 4.47 4.47 0 0 1-.83-1.59 7.47 7.47 0 0 1 0-4 4.47 4.47 0 0 1 .83-1.59 4.06 4.06 0 0 1 1.41-1.07 5.17 5.17 0 0 1 3.94 0 4.06 4.06 0 0 1 1.43 1.09 4.47 4.47 0 0 1 .83 1.59 7.47 7.47 0 0 1 0 4 4.47 4.47 0 0 1-.83 1.59 3.92 3.92 0 0 1-1.41 1.06 4.65 4.65 0 0 1-2 .39m0-1.49a2.13 2.13 0 0 0 1.91-.93 4.67 4.67 0 0 0 .62-2.61 4.61 4.61 0 0 0-.62-2.6 2.13 2.13 0 0 0-1.91-.93 2.1 2.1 0 0 0-1.9.93 4.7 4.7 0 0 0-.61 2.6 4.76 4.76 0 0 0 .61 2.61 2.1 2.1 0 0 0 1.9.93m6.85-8.38l.47-.06h.92l.47.06v5.27a5.6 5.6 0 0 0 .17 1.49 2.09 2.09 0 0 0 .51.93 1.86 1.86 0 0 0 .82.47 4.28 4.28 0 0 0 1.13.13 5.56 5.56 0 0 0 1.63-.21v-8.08l.46-.06h.92l.46.06v9.32c-.44.13-1 .24-1.57.36a10.52 10.52 0 0 1-1.88.17 9.53 9.53 0 0 1-1.74-.16 3.4 3.4 0 0 1-1.43-.65 3.23 3.23 0 0 1-1-1.37 6.26 6.26 0 0 1-.36-2.33v-5.34m10.89 0l.38-.06h.8l.39.06a.79.79 0 0 1 .05.23l.06.43v.43a2.49 2.49 0 0 1 0 .26 4.77 4.77 0 0 1 .45-.58 3.19 3.19 0 0 1 .63-.51 3 3 0 0 1 .82-.35 3.68 3.68 0 0 1 1-.13 4.2 4.2 0 0 1 1.56.28 3.08 3.08 0 0 1 1.24.87 4.28 4.28 0 0 1 .81 1.5 7.22 7.22 0 0 1 .29 2.15 5.37 5.37 0 0 1-1.34 3.87 5 5 0 0 1-3.8 1.4 6.37 6.37 0 0 1-1.6-.21v4.41l-.47.05h-.92l-.46-.05v-14m1.85 8a3.8 3.8 0 0 0 .74.18 6.33 6.33 0 0 0 1 .06 3.33 3.33 0 0 0 1.24-.22 2.54 2.54 0 0 0 1-.66 3.28 3.28 0 0 0 .63-1.14 4.85 4.85 0 0 0 .34-1.62 4.43 4.43 0 0 0-.56-2.38 2 2 0 0 0-1.81-.88 2.32 2.32 0 0 0-.9.17 2.37 2.37 0 0 0-.77.5 2.63 2.63 0 0 0-.54.86 3.21 3.21 0 0 0-.21 1.22zM25.44 0a25.44 25.44 0 1 0 25.44 25.44A25.44 25.44 0 0 0 25.44 0m16.77 21.93H27.4l1.37-2.78h12.61a16.38 16.38 0 0 1 .83 2.77M25.44 42.57A17.14 17.14 0 1 1 39.81 16.1H31.3a11 11 0 1 0 3.76 14.72H23.43L26.3 25h16.27v.45a17.13 17.13 0 0 1-17.13 17.12" fill="#fff"/></svg>
